<?xml version="1.0" standalone="no"?><!DOCTYPE svg PUBLIC "-//W3C//DTD SVG 1.1//EN" "http://www.w3.org/Graphics/SVG/1.1/DTD/svg11.dtd"><svg t="1587439923081" class="icon" viewBox="0 0 1024 1024" version="1.1" xmlns="http://www.w3.org/2000/svg" p-id="22325" xmlns:xlink="http://www.w3.org/1999/xlink" width="200" height="200"><defs><style type="text/css"></style></defs><path d="M490.128 132.634l3.126-0.177A384.27 384.27 0 0 1 512 132c4.484 0 8.956 0.077 13.415 0.23a27.705 27.705 0 0 1 9.689 0.455c74.446 4.423 144.863 30.232 204.828 75.264 12.885 9.728 15.53 27.99 5.803 40.96-9.729 12.887-27.99 15.532-40.962 5.804-30.259-22.695-63.635-39.605-99.009-50.353 36.083 48.112 63.005 102.194 78.91 159.196a470.992 470.992 0 0 1 15.514 85.29l127.08 0.043a319.227 319.227 0 0 0-16.849-56.615c-6.059-15.02 1.28-32 16.214-38.06 15.019-6.059 32 1.28 38.06 16.214 11.498 28.638 19.412 58.311 23.652 88.69 2.316 3.302 3.655 7.197 3.655 11.362 0 2.64-0.531 5.167-1.503 7.5 1 11.259 1.503 22.604 1.503 34.02 0 209.585-170.415 380-380 380-5.915 0-11.799-0.136-17.649-0.405a19.908 19.908 0 0 1-3.98 0.405c-2.076 0-4.152-0.34-6.166-1.018l-0.003 0.011c-0.58-0.042-1.158-0.085-1.736-0.13a27.236 27.236 0 0 1-7.787 1.137c-4.615 0-9.165-1.14-13.172-3.349C275.78 863.881 132 704.383 132 512c0-11.528 0.516-22.937 1.527-34.207l0.012 0.004a19.327 19.327 0 0 1-1.539-7.553c0-4.209 1.367-8.141 3.727-11.466l-0.01-0.003C160.11 285.561 301.77 149.432 477.535 133.55l0.004 0.012a19.546 19.546 0 0 1 12.589-0.928z m183.537 518.09l-0.152 0.418a476.355 476.355 0 0 1-24.343 55.24c-23.504 45.59-54.106 87.162-91.1 123.941 89.021-12.84 166.353-62.277 216.214-132.52l0.69 0.417c-31.892-19.342-65.788-35.218-101.31-47.497z m-183.49-30.465h-0.178c-29.456 0-58.824 2.205-87.481 6.694a562.97 562.97 0 0 0-22.288 3.9 484.607 484.607 0 0 0 15.029 48.872c18.136 49.439 43.795 94.424 76.266 133.707a406.895 406.895 0 0 0 13.189 15.287 506.062 506.062 0 0 0 17.897-15.188c41.469-37.142 75.08-80.34 99.885-128.526a430.102 430.102 0 0 0 21.566-48.832 561.588 561.588 0 0 0-17.836-4.023c-37.796-7.875-76.834-11.89-116.05-11.89zM337.69 640.942l-1.796 0.504c-34.08 9.653-66.894 22.533-98.132 38.522 40.863 66.508 105.241 117.077 181.473 140.056-26.45-36.898-47.923-77.687-64.052-121.682a533.974 533.974 0 0 1-17.493-57.4zM701.996 492l0.004-1.878c0 8.016-0.19 16.3-0.663 24.583-1.675 32.08-6.557 63.571-14.603 94.275 38.815 13.068 75.886 30.04 110.8 50.734 22.951-44.232 35.926-94.441 35.926-147.63 0-6.709-0.204-13.39-0.611-20.04L701.996 492zM190.37 512.085c0 45.698 9.577 89.197 26.83 128.596 35.582-17.876 72.976-32.088 111.846-42.524-4.516-28.125-6.867-56.778-7.046-85.812v-3.117c0-5.795 0.09-11.58 0.267-17.352L191 491.83a325.066 325.066 0 0 0-0.63 20.254z m175.03-2.768v2.94c0.14 25.717 2.203 51.137 6.16 76.109a619.748 619.748 0 0 1 22.616-3.937c31.408-4.883 63.614-7.324 95.82-7.324h0.178c42.942 0 85.706 4.41 127.14 13.072a609.05 609.05 0 0 1 19.677 4.432c6.846-26.84 11.016-54.335 12.463-82.308 0.345-6.891 0.532-13.708 0.563-20.317l-284.32-0.095a508.676 508.676 0 0 0-0.297 17.428zM511.915 190.54c-9.623 0-19.149 0.425-28.56 1.257l0.004 0.01C439.844 240.3 406.48 299.89 386.704 364.742c-8.298 27.318-14.209 55.407-17.667 83.996l279 0.092c-2.388-24.688-6.934-49.104-13.637-72.893-19.088-68.378-55.88-132.237-106.406-185.006-5.337-0.26-10.698-0.39-16.08-0.39z m-97.444 15.088l-4.09 1.33c-108.177 36.078-190.946 128.175-213.736 241.72l128.625 0.045c3.696-34.002 10.506-67.414 20.33-99.837 15.687-51.523 39.09-100.097 68.87-143.258zM797 258.667c17.489 0 31.667 14.177 31.667 31.666 0 17.49-14.178 31.667-31.667 31.667s-31.667-14.178-31.667-31.667 14.178-31.666 31.667-31.666z" fill="#000000" fill-opacity=".45" p-id="22326"></path></svg>
