<?xml version="1.0" encoding="UTF-8"?>
<svg width="1024px" height="1024px" viewBox="0 0 1024 1024" version="1.1" xmlns="http://www.w3.org/2000/svg" xmlns:xlink="http://www.w3.org/1999/xlink">
    <!-- Generator: Sketch 64 (93537) - https://sketch.com -->
    <title>natification new</title>
    <desc>Created with Sketch.</desc>
    <g id="规范" stroke="none" stroke-width="1" fill="none" fill-rule="evenodd" fill-opacity="0.45">
        <g id="画板备份-3" fill="#000000">
            <g id="编组">
                <g id="Component/icon/ic_Notification" transform="translate(152.000000, 152.000000)">
                    <path d="M368.616122,0 C421.25847,0 464.664157,39.5468439 470.744829,90.5521765 C556.550617,129.445465 616.23517,215.847933 616.23517,316.190476 L616.23517,488.224856 L673.509427,601.693404 C685.019938,624.497383 668.446176,651.428571 642.901836,651.428571 L465.620385,651.428889 C451.50019,691.378176 413.400649,720 368.616122,720 C323.831595,720 285.732054,691.378176 271.611859,651.428889 L94.3304077,651.428571 C68.786068,651.428571 52.2123065,624.497383 63.7228171,601.693404 L120.997074,488.224856 L120.997074,316.190476 C120.997074,215.847544 180.68209,129.444794 266.487501,90.5468467 C272.568654,39.5463266 315.974118,0 368.616122,0 Z M368.616122,137.142857 C269.730853,137.142857 189.568503,217.305207 189.568503,316.190476 L189.568503,496.387416 C189.568503,501.754126 188.308667,507.045893 185.890379,511.836869 L150.042266,582.857143 L587.189978,582.857143 L551.341865,511.836869 C548.923577,507.045893 547.663741,501.754126 547.663741,496.387416 L547.663741,316.190476 C547.663741,217.305207 467.501392,137.142857 368.616122,137.142857 Z" id="Shape"></path>
                </g>
            </g>
        </g>
    </g>
</svg>
