<?xml version="1.0" standalone="no"?><!DOCTYPE svg PUBLIC "-//W3C//DTD SVG 1.1//EN" "http://www.w3.org/Graphics/SVG/1.1/DTD/svg11.dtd"><svg t="1587439919019" class="icon" viewBox="0 0 1024 1024" version="1.1" xmlns="http://www.w3.org/2000/svg" p-id="22206" xmlns:xlink="http://www.w3.org/1999/xlink" width="200" height="200"><defs><style type="text/css"></style></defs><path d="M690.508 280.292C800.315 390.099 803.68 566.04 700.602 679.9c0.095 0.089 0.19 0.183 0.285 0.278l130.767 130.767c29.856 29.856-14.928 74.639-44.783 44.783L656.104 724.963a39.608 39.608 0 0 1-2.74-3.031l0.01 0.006c-113.274 80.644-271.485 70.167-373.082-31.43-113.278-113.278-113.278-296.938 0-410.216 113.278-113.278 296.938-113.278 410.216 0z m-365.433 44.783c-88.545 88.545-88.545 232.105 0 320.65 88.545 88.545 232.105 88.545 320.65 0 88.545-88.545 88.545-232.105 0-320.65-88.545-88.545-232.105-88.545-320.65 0z" fill="#000000" fill-opacity=".45" p-id="22207"></path></svg>
