<?xml version="1.0" standalone="no"?><!DOCTYPE svg PUBLIC "-//W3C//DTD SVG 1.1//EN" "http://www.w3.org/Graphics/SVG/1.1/DTD/svg11.dtd"><svg t="1593356029328" class="icon" viewBox="0 0 1024 1024" version="1.1" xmlns="http://www.w3.org/2000/svg" p-id="1130" xmlns:xlink="http://www.w3.org/1999/xlink" width="200" height="200"><defs><style type="text/css"></style></defs><path d="M512 64C264.59 64 64 264.557 64 512s200.59 448 448 448 448-200.557 448-448S759.41 64 512 64zM308.364 532.383c0-168.711 135.213-305.474 302.01-305.474 51.03-0.07 101.249 13.004 145.99 38.005a149.467 149.467 0 0 0-35.894-4.467c-110.133 0-199.42 121.735-199.42 271.898 0 150.162 89.176 271.897 199.42 271.897a149.467 149.467 0 0 0 35.894-4.466c-44.731 25.03-94.955 38.118-145.99 38.042-166.797 0-302.01-136.763-302.01-305.435z m529.454-20.363c0 135.106-36.482 244.344-81.454 244.344-44.973 0-81.455-109.397-81.455-244.344 0-134.948 36.446-244.384 81.455-244.384 45.008 0 81.454 109.397 81.454 244.344v0.04z" fill="#1890FF" p-id="1131"></path></svg>